<svg xmlns="http://www.w3.org/2000/svg" viewBox="0 0 197.29 203.87"><defs><style>.cls-1{fill:#cd0812}.cls-2{fill:#fff}.cls-3{fill:#1f76a5}.cls-4{fill:none;stroke:#1f76a5;stroke-miterlimit:10;stroke-width:6px}</style></defs><title>Ресурс 2</title><g id="Слой_2" data-name="Слой 2"><g id="Слой_1-2" data-name="Слой 1"><path class="cls-1" transform="rotate(-45 141.96 24.818)" d="M132.2 15.06h19.51v19.51H132.2z"/><path class="cls-2" d="M142 13.14l11.67 11.67L142 36.49l-11.72-11.68L142 13.14m0-4.24l-2.17 2.1-11.67 11.69-2.16 2.12 2.12 2.13 11.67 11.67 2.21 2.12 2.12-2.12 11.67-11.67 2.12-2.13-2.12-2.12L144.08 11 142 8.9z"/><path class="cls-1" transform="rotate(-45.01 161.948 38.14)" d="M156.9 33.1h10.09v10.08H156.9z"/><path class="cls-2" d="M161.94 33.13l5 5-5 5-5-5 5-5m0-4.24L159.82 31l-5 5-2.12 2.12 2.12 2.12 5 5 2.12 2.12 2.12-2.12 5-5 2.13-2.12-2.11-2.12-5-5-2.13-2.12z"/><path class="cls-1" transform="rotate(-45 151.966 34.804)" d="M142.2 29.76h19.51v10.09H142.2z"/><path class="cls-2" d="M155.28 26.46l5 5-11.66 11.69-5-5 11.67-11.68m0-4.24l-2.12 2.12L141.48 36l-2.12 2.12 2.13 2.12 5 5 2.12 2.12 2.12-2.12 11.69-11.64 2.12-2.12-2.12-2.12-5-5-2.12-2.12z"/><path class="cls-1" transform="rotate(-45.02 155.292 44.804)" d="M150.24 39.76h10.09v10.08h-10.09z"/><path class="cls-2" d="M155.28 39.79l5 5-5 5-5-5 5-5m0-4.24l-2.12 2.12-5 5L146 44.8l2.12 2.13 5 5 2.12 2.12 2.12-2.12 5-5 2.12-2.12-2.12-2.12-5-5-2.12-2.12z"/><path class="cls-1" transform="rotate(-44.98 145.286 48.125)" d="M140.24 38.38h10.09v19.51h-10.09z"/><path class="cls-2" d="M142 39.79l11.67 11.67-5 5-11.73-11.66 5-5m0-4.24l-2.13 2.12-5 5-2.11 2.12 2.12 2.12L146.5 58.6l2.12 2.12 2.12-2.12 5-5 2.12-2.12-2.12-2.12-11.66-11.69-2.08-2.12z"/><path class="cls-1" transform="rotate(-44.98 138.622 54.788)" d="M133.58 45.04h10.09v19.51h-10.09z"/><path class="cls-2" d="M135.29 46.45L147 58.12l-5 5-11.72-11.66 5-5m0-4.24l-2.12 2.12-5 5-2.16 2.12 2.12 2.12 11.67 11.68 2.21 2.12 2.12-2.12 5-5 2.12-2.13-2.15-2.13-11.67-11.67-2.13-2.12z"/><path class="cls-3" d="M152.5 131.92a9.53 9.53 0 1 0 9.46 9.52 9.58 9.58 0 0 0-9.46-9.52zm-136.83 0a9.53 9.53 0 1 0 9.46 9.52 9.51 9.51 0 0 0-9.46-9.52zm108.48-17.34a14.19 14.19 0 1 0 14.17 14.17 14.23 14.23 0 0 0-14.17-14.17zm43.96 65.19H152v-8.71a27.58 27.58 0 0 0-3.94-14 16 16 0 0 1 4.48-.71A15.7 15.7 0 0 1 168.11 172zM44 114.58a14.19 14.19 0 1 0 14.18 14.17A14.22 14.22 0 0 0 44 114.58zm-28.33 41.76a16 16 0 0 1 4.42.71 27.58 27.58 0 0 0-3.94 14v8.71H0V172a15.66 15.66 0 0 1 15.67-15.67zM84.05 86.3a21 21 0 1 0 21 21 21 21 0 0 0-21-21zm62.7 104.5H122v-24.24a38.21 38.21 0 0 0-4.26-17.16 23.28 23.28 0 0 1 6.38-1 22.68 22.68 0 0 1 22.6 22.69zM46 166.56v24.24H21.36v-19.74A22.63 22.63 0 0 1 44 148.37a21.37 21.37 0 0 1 6.38 1.11A36.56 36.56 0 0 0 46 166.56zm5.2 37.31h65.71v-37.31a32.86 32.86 0 0 0-65.71 0z"/><path class="cls-4" d="M119.17 93.48v-24h-6.45a18.27 18.27 0 0 1-18.25-18.23v-30A18.23 18.23 0 0 1 112.72 3H176a18.29 18.29 0 0 1 18.26 18.26v30A18.29 18.29 0 0 1 176 69.5h-32.9z"/></g></g></svg>