<svg id="Слой_1" xmlns="http://www.w3.org/2000/svg" viewBox="0 0 269.2 193.7"><style>.st0{fill:#1f76a5}.st1{fill:#fff}.st2{fill:none;stroke:#fff}.st2,.st3,.st4{stroke-miterlimit:10}.st3{stroke-width:2;fill:#fff;stroke:#477ca8}.st4{fill:none;stroke:#c6c6c6}.st5{fill:#cd0812}</style><path class="st0" d="M1.5 1.5h233v154H1.5z"/><path class="st1" d="M233 3v151H3V3h230m3-3H0v157h236V0z"/><path class="st0" d="M3 3h230v8.1H3z"/><path class="st1" d="M7.6 11.1h221.2v13.4H7.6zm0 20.1h50.1v108.3H7.6zm53.3 0h114.3v31.4H60.9zm0 50.5h167.9v57.9H60.9zm115.3-50.5h52.6v31.4h-52.6zm16.1 37h36.5v10.3h-36.5zm-38.3 0h36.5v10.3H154z"/><path class="st2" d="M90.5 72.9h20.1v5.6H90.5zm-24.9 2.8h20.1"/><path class="st3" d="M162.2 73.4h20.1m18.7 0h20.1"/><path class="st2" d="M62.1 28.2H72m106.2 0h15.1m-185.7 0h10.6"/><path class="st4" d="M11.2 37.1h26.4m-26.4 5.7h39.7m-39.7 5.7h26.4m-26.4 5.7h13.2M11.2 60h26.4m-26.4 5.7h39.7m-39.7 5.7h26.4m-26.4 5.7h22.7m-22.7 5.7h26.4m-26.4 5.7h13.2m44.7.3h13.2m-13.2 5.4h13.2m-13.2 5.4h13.2M69.1 105h13.2m-13.2 5.4h13.2m-13.2 5.4h13.2m-13.2 5.4h13.2m-13.2 5.4h13.2m-13.2 5.3h13.2m33-43.1h13.3m-13.3 5.4h13.3m-13.3 5.4h13.3m-13.3 5.4h13.3m-13.3 5.4h13.3m-13.3 5.4h13.3m-13.3 5.4h13.3m-13.3 5.4h13.3m-13.3 5.3h13.3m33-43.1h13.2m-13.2 5.4h13.2m-13.2 5.4h13.2m-13.2 5.4h13.2m-13.2 5.4h13.2m-13.2 5.4h13.2m-13.2 5.4h13.2m-13.2 5.4h13.2m-13.2 5.3h13.2m33.1-43.1h13.2m-13.2 5.4h13.2m-13.2 5.4h13.2m-13.2 5.4h13.2m-13.2 5.4h13.2m-13.2 5.4h13.2m-13.2 5.4h13.2m-13.2 5.4h13.2m-13.2 5.3h13.2M11.2 94.2h39.7m-39.7 5.7h26.4m-26.4 5.7h33.4m-33.4 5.7h26.4M11.2 117h13.2m-13.2 5.7h26.4m-26.4 5.8h39.7"/><path transform="rotate(-47.74 197.225 128.93)" class="st5" d="M138.6 109.4h117.3v39H138.6z"/><path class="st1" d="M222.3 74.5L249 98.7l-76.9 84.6-26.6-24.2 76.8-84.6m-.2-4.2l-2 2.2-76.9 84.6-2 2.2 2.2 2 26.6 24.2 2.2 2 2-2.2 76.9-84.6 2-2.2-2.2-2-26.6-24.2-2.2-2z"/><path class="st5" d="M141.9 159.9l29.8 27L140 192z"/><path class="st1" d="M143.2 163.1l25.2 22.9-26.8 4.2 1.6-27.1m-2.6-6.4l-.4 6.2-1.7 27.1-.2 3.7 3.7-.6 26.8-4.2 6.2-1-4.6-4.2-25.2-22.9-4.6-4.1z"/><path class="st2" d="M232.1 91.5l-68.3 75.2m74.7-69.3l-68.3 75.2m55.5-86.9l-68.3 75.2"/><path class="st5" d="M223.8 70.7l13-14.3c1.5-1.6 3.6-2.6 5.9-2.6 2 0 3.9.7 5.3 2.1l17.1 15.6c1.6 1.4 2.5 3.4 2.6 5.5.1 2.1-.6 4.1-2 5.7l-13 14.3-28.9-26.3z"/><path class="st1" d="M242.6 55.3c1.5 0 3.1.6 4.3 1.7L264 72.6c2.6 2.4 2.8 6.4.4 9.1l-12 13.2-26.6-24.2 12-13.2c1.4-1.5 3.1-2.2 4.8-2.2m0-3c-2.6 0-5.2 1.1-7 3.1l-12 13.2-2 2.2 2.2 2L250.5 97l2.2 2 2-2.2 12-13.2c1.7-1.9 2.6-4.3 2.4-6.8-.1-2.5-1.2-4.8-3.1-6.5l-17-15.5c-1.8-1.6-4-2.5-6.4-2.5z"/></svg>