<svg id="Слой_1" xmlns="http://www.w3.org/2000/svg" viewBox="0 0 222.8 267.7"><style>.st0{fill:#1f76a5}.st1{fill:#fff}.st2{fill:none;stroke:#cd0812;stroke-width:3;stroke-miterlimit:10}.st3{fill:#cd0812}</style><path class="st0" d="M1.5 1.5H90v166.4H1.5z"/><path class="st1" d="M88.5 3v163.4H3V3h85.5m3-3H0v169.4h91.5V0z"/><path class="st1" d="M6.9 19.5h21v10.8h-21zm28.4 0h21v10.8h-21zm28.3 0h21v10.8h-21zM6.9 40.6h21v10.8h-21zm28.4 0h21v10.8h-21zm28.3 0h21v10.8h-21zM6.9 61.8h21v10.8h-21zm28.4 0h21v10.8h-21zm28.3 0h21v10.8h-21zM6.9 83h21v10.8h-21zm28.4 0h21v10.8h-21zm28.3 0h21v10.8h-21zM6.9 104.1h21v10.8h-21zm28.4 0h21v10.8h-21zm0 34.9h21v27.4h-21zm28.3-34.9h21v10.8h-21z"/><path class="st0" d="M132.8 99.7h88.5v166.4h-88.5z"/><path class="st1" d="M219.8 101.2v163.4h-85.5V101.2h85.5m3-3h-91.5v169.4h91.5V98.2z"/><path class="st1" d="M138.3 117.7h21v10.8h-21zm28.3 0h21v10.8h-21zm28.3 0h21v10.8h-21zm-56.6 21.2h21v10.8h-21zm28.3 0h21v10.8h-21zm28.3 0h21v10.8h-21zM138.3 160h21v10.8h-21zm28.3 0h21v10.8h-21zm28.3 0h21v10.8h-21zm-56.6 21.2h21V192h-21zm28.3 0h21V192h-21zm28.3 0h21V192h-21zm-56.6 21.2h21v10.8h-21zm28.3 0h21v10.8h-21zm0 34.8h21v27.4h-21zm28.3-34.8h21v10.8h-21z"/><path class="st2" d="M83 61.5c14.8-15.3 38-18.8 56.3-8.6 17.5 9.8 26.8 30 22.8 50"/><path class="st3" d="M83 72.8c-5.2 0-9.7-3.5-10.9-8.6-1.5-6 2.2-12.2 8.2-13.7.9-.2 1.8-.3 2.7-.3 5.2 0 9.7 3.5 10.9 8.6.7 2.9.3 6-1.3 8.5s-4 4.4-6.9 5.1c-.8.3-1.7.4-2.7.4z"/><path class="st1" d="M83.1 51.7c4.4 0 8.4 3 9.5 7.4 1.3 5.2-1.9 10.6-7.1 11.9-.8.2-1.6.3-2.4.3-4.4 0-8.4-3-9.5-7.4-1.3-5.2 1.9-10.6 7.1-11.9.8-.2 1.6-.3 2.4-.3m0-3c-1 0-2.1.1-3.1.4-3.3.8-6.1 2.9-7.9 5.8-1.8 2.9-2.3 6.4-1.4 9.7 1.4 5.7 6.5 9.7 12.4 9.7 1 0 2.1-.1 3.1-.4 3.3-.8 6.1-2.9 7.9-5.8 1.8-2.9 2.3-6.4 1.4-9.7-1.5-5.7-6.6-9.7-12.4-9.7z"/><path class="st3" d="M162.1 114.7c-5.4 0-10.1-3.7-11.5-9-.8-3.1-.3-6.2 1.3-9 1.6-2.7 4.2-4.6 7.3-5.4.9-.2 1.9-.4 2.9-.4 5.4 0 10.1 3.7 11.5 9 1.6 6.3-2.3 12.8-8.6 14.3-1 .4-1.9.5-2.9.5z"/><path class="st1" d="M162.1 92.6c4.6 0 8.8 3.1 10 7.8 1.4 5.5-2 11.1-7.5 12.5a10.334 10.334 0 0 1-12.5-7.5c-1.4-5.5 2-11.1 7.5-12.5.8-.2 1.7-.3 2.5-.3m0-3c-1.1 0-2.2.1-3.2.4-7.1 1.8-11.5 9-9.7 16.2 1.5 5.9 6.8 10.1 12.9 10.1 1.1 0 2.2-.1 3.2-.4 7.1-1.8 11.5-9 9.7-16.2-1.5-6-6.8-10.1-12.9-10.1z"/><path class="st2" d="M145.1 203.7c-16.3 13.6-39.8 14.5-56.9 2.4C71.9 194.5 64.8 173.3 71 154"/><path class="st3" d="M145 216.9c-6.6 0-12.2-4.9-13.1-11.4-1-7.2 4.1-13.9 11.3-14.9.6-.1 1.2-.1 1.8-.1 6.6 0 12.2 4.9 13.1 11.4 1 7.2-4.1 13.9-11.3 14.9-.5.1-1.2.1-1.8.1z"/><path class="st1" d="M145.1 192c5.8 0 10.8 4.3 11.6 10.1.9 6.4-3.6 12.3-10 13.2-.5.1-1.1.1-1.6.1-5.8 0-10.8-4.3-11.6-10.1-.9-6.4 3.6-12.3 10-13.2.5-.1 1-.1 1.6-.1m0-3c-.7 0-1.3 0-2 .1-8 1.1-13.7 8.5-12.6 16.6 1 7.3 7.3 12.7 14.6 12.7.7 0 1.3 0 2-.1 3.9-.5 7.4-2.6 9.7-5.7 2.4-3.1 3.4-7 2.9-10.9-1-7.3-7.3-12.7-14.6-12.7z"/><path class="st3" d="M71 167.5c-6.7 0-12.5-5-13.4-11.7-1-7.4 4.2-14.3 11.6-15.3.6-.1 1.2-.1 1.9-.1 6.7 0 12.5 5 13.4 11.7 1 7.4-4.2 14.3-11.6 15.3-.7.1-1.3.1-1.9.1z"/><path class="st1" d="M71 141.9c5.9 0 11.1 4.4 12 10.4.9 6.6-3.7 12.7-10.3 13.6-.7.1-1.2.1-1.7.1-5.9 0-11.1-4.4-12-10.4-.9-6.6 3.7-12.7 10.3-13.6.6-.1 1.1-.1 1.7-.1m0-3c-.7 0-1.4 0-2.1.1-4 .5-7.5 2.6-10 5.8-2.4 3.2-3.4 7.2-2.9 11.2 1 7.4 7.4 13 14.9 13 .7 0 1.4 0 2.1-.1 8.2-1.1 14-8.7 12.9-17-1-7.4-7.4-13-14.9-13z"/></svg>