<svg xmlns="http://www.w3.org/2000/svg" viewBox="0 0 105.08 104.58"><defs><style>.cls-1{fill:#1f76a5}.cls-2{fill:#fff}.cls-3,.cls-4{fill:none;stroke:#1f76a5;stroke-linecap:round;stroke-linejoin:round}.cls-3{stroke-width:2px}.cls-4{stroke-width:1.5px}.cls-5{fill:#cd0812}</style></defs><title>Ресурс 3</title><g id="Слой_2" data-name="Слой 2"><g id="Слой_1-2" data-name="Слой 1"><rect class="cls-1" x="28.41" y="28.16" width="48.25" height="48.25" rx="6.02" ry="6.02"/><path class="cls-2" d="M70.64 30.16a4 4 0 0 1 4 4v36.2a4 4 0 0 1-4 4h-36.2a4 4 0 0 1-4-4V34.19a4 4 0 0 1 4-4h36.2m0-4h-36.2a8 8 0 0 0-8 8v36.2a8 8 0 0 0 8 8h36.2a8 8 0 0 0 8-8v-36.2a8 8 0 0 0-8-8z"/><path class="cls-3" d="M77.94 40.56h11.44l10.02-8.08M77.94 49.15h11.44l10.02-7.1M77.94 64.02h11.44L99.4 72.1M77.94 55.43h11.44l10.02 7.09m4.68-31.22a2.23 2.23 0 1 1-2.23-2.22 2.23 2.23 0 0 1 2.23 2.22zm0 9.7a2.23 2.23 0 1 1-2.23-2.23 2.23 2.23 0 0 1 2.23 2.23zm0 22.54a2.23 2.23 0 1 1-2.23-2.23 2.23 2.23 0 0 1 2.23 2.23z"/><circle class="cls-3" cx="101.85" cy="73.27" r="2.23"/><path class="cls-3" d="M27.13 40.56H15.69L5.68 32.48m21.45 16.67H15.69l-10.01-7.1m21.45 21.97H15.69L5.68 72.1m21.45-16.67H15.69L5.68 62.52M1 31.3a2.23 2.23 0 1 0 2.23-2.22A2.23 2.23 0 0 0 1 31.3zM1 41a2.23 2.23 0 1 0 2.23-2.23A2.23 2.23 0 0 0 1 41zm0 22.54a2.23 2.23 0 1 0 2.23-2.23A2.23 2.23 0 0 0 1 63.54zm0 9.73A2.23 2.23 0 1 0 3.23 71 2.23 2.23 0 0 0 1 73.27zm39.81-46.38V15.44L32.73 5.43M49.4 26.89V15.44L42.3 5.43m21.97 21.46V15.44l8.08-10.01M55.68 26.89V15.44l7.09-10.01"/><path class="cls-4" d="M31.55.75A2.23 2.23 0 1 1 29.32 3 2.23 2.23 0 0 1 31.55.75zm9.74 0A2.23 2.23 0 1 1 39.06 3 2.23 2.23 0 0 1 41.29.75zm22.5 0A2.23 2.23 0 1 1 61.56 3 2.23 2.23 0 0 1 63.79.75zm9.73 0A2.23 2.23 0 1 1 71.29 3 2.23 2.23 0 0 1 73.52.75z"/><path class="cls-3" d="M40.81 77.69v11.44l-8.08 10.02M49.4 77.69v11.44l-7.1 10.02m21.97-21.46v11.44l8.08 10.02M55.68 77.69v11.44l7.09 10.02"/><circle class="cls-4" cx="31.55" cy="101.6" r="2.23"/><path class="cls-4" d="M41.29 103.83a2.23 2.23 0 1 0-2.23-2.23 2.23 2.23 0 0 0 2.23 2.23zm22.5 0a2.23 2.23 0 1 0-2.23-2.23 2.23 2.23 0 0 0 2.23 2.23zm9.73 0a2.23 2.23 0 1 0-2.23-2.23 2.23 2.23 0 0 0 2.23 2.23z"/><path class="cls-5" d="M47.82 61.31h9.43v5.12h-9.43z"/><path class="cls-2" d="M56.25 62.31v3.13h-7.43v-3.13h7.43m2-2H46.82v7.13h11.43v-7.13z"/><path class="cls-5" d="M47.82 60.85V57c0-.68-1-2.27-2.47-4A8.1 8.1 0 0 1 44 50.79a9.24 9.24 0 0 1 8.19-12.64h.37a9.23 9.23 0 0 1 9.21 9.22A9.34 9.34 0 0 1 61.6 49a8.87 8.87 0 0 1-2 4.08c-1.71 2-2.35 3.35-2.38 3.92v3.82z"/><path class="cls-2" d="M52.54 39.14a8.22 8.22 0 0 1 8.21 8.22 8.1 8.1 0 0 1-.13 1.49 7.87 7.87 0 0 1-1.76 3.62c-.9 1.07-2.53 3.18-2.61 4.51v2.87h-7.43V57c-.07-1.38-1.84-3.61-2.71-4.64a7 7 0 0 1-1.2-1.93 8.21 8.21 0 0 1 7.3-11.26h.33m0-2h-.41a10.27 10.27 0 0 0-9.79 9.67 10 10 0 0 0 .72 4.34 8.82 8.82 0 0 0 1.53 2.48 10.53 10.53 0 0 1 2.23 3.43v4.78h11.43v-4.8a9.84 9.84 0 0 1 2.14-3.31 9.85 9.85 0 0 0 2.19-4.54 9.68 9.68 0 0 0 .17-1.86 10.22 10.22 0 0 0-10.21-10.22z"/></g></g></svg>