<svg xmlns="http://www.w3.org/2000/svg" viewBox="0 0 157.43 169.42"><defs><style>.cls-1{fill:#1f76a5}.cls-2{fill:#fff}.cls-3{fill:#cd0812}</style></defs><title>Ресурс 1</title><g id="Слой_2" data-name="Слой 2"><g id="Слой_1-2" data-name="Слой 1"><path class="cls-1" d="M1.5 28.55H53v95.7H1.5z"/><path class="cls-2" d="M51.5 30.05v92.7H3v-92.7h48.5m3-3H0v98.7h54.5v-98.7z"/><path class="cls-2" d="M5.22 39.4h11.91v6.1H5.22zm16.07 0H33.2v6.1H21.29zm16.08 0h11.91v6.1H37.37zM5.22 51.41h11.91v6.1H5.22zm16.07 0H33.2v6.1H21.29zm16.08 0h11.91v6.1H37.37zm-32.15 12h11.91v6.1H5.22zm16.07 0H33.2v6.1H21.29zm16.08 0h11.91v6.1H37.37zM5.22 75.42h11.91v6.1H5.22zm16.07 0H33.2v6.1H21.29zm16.08 0h11.91v6.1H37.37zM5.22 87.43h11.91v6.1H5.22zm16.07 0H33.2v6.1H21.29zm0 19.75H33.2v15.57H21.29zm16.08-19.75h11.91v6.1H37.37z"/><path class="cls-1" d="M37.83 1.5h88.5v166.42h-88.5z"/><path class="cls-2" d="M124.83 3v163.42h-85.5V3h85.5m3-3h-91.5v169.42h91.5V0z"/><path class="cls-2" d="M43.25 19.47h21v10.76h-21zm28.33 0h21v10.76h-21zm28.34 0h21v10.76h-21zM43.25 40.64h21V51.4h-21zm28.33 0h21V51.4h-21zm28.34 0h21V51.4h-21zM43.25 61.81h21v10.76h-21zm28.33 0h21v10.76h-21zm28.34 0h21v10.76h-21zM43.25 82.98h21v10.76h-21zm28.33 0h21v10.76h-21zm28.34 0h21v10.76h-21zm-56.67 21.17h21v10.76h-21zm28.33 0h21v10.76h-21zm0 34.82h21v27.45h-21zm28.34-34.82h21v10.76h-21z"/><path class="cls-3" d="M92.88 117.63l-12.31.6 18.46-42.2 18.76 10.58-17.3 40.34-7.61-9.32z"/><path class="cls-2" d="M99.74 78.16l16.14 9.09-15.79 36.83-6.53-8-10.64.51 16.82-38.43m-1.42-4.25L97 77l-16.83 38.41-1.94 4.43 4.83-.23 9.14-.44 5.56 6.83 3.13 3.83 2-4.54 15.8-36.83L119.7 86l-2.34-1.32-16.14-9.1-2.9-1.63z"/><path class="cls-3" d="M117.86 86.61l18.76-10.58 18.46 42.2-12.3-.6-7.61 9.32-17.31-40.34z"/><path class="cls-2" d="M135.91 78.16l16.83 38.45-10.65-.51-6.52 8-15.8-36.83 16.14-9.09m1.42-4.25l-2.89 1.63-16.14 9.1L116 86l1 2.44 15.79 36.83 1.95 4.54 3.13-3.83 5.57-6.81 9.13.44 4.84.23-1.94-4.43L138.66 77l-1.33-3z"/><path class="cls-3" d="M105.35 85.06l-15.76-3.52.07-16.16-7.07-14.52 12.67-10.02 6.95-14.59 15.73 3.66 15.74-3.66 6.94 14.59 12.68 10.02-7.07 14.52.06 16.16-15.76 3.52-12.59 10.13-12.59-10.13z"/><path class="cls-2" d="M132.84 28l6.58 13.81 12 9.48-6.7 13.71.07 15.3-14.93 3.34-11.92 9.58L106 83.68l-14.9-3.34.06-15.34-6.7-13.76 12-9.48L103 28l14.9 3.46L132.84 28m1.67-3.47l-2.35.55-14.22 3.3-14.22-3.3-2.35-.55-1 2.18-6.31 13.17-11.46 9-1.89 1.5 1.06 2.17 6.39 13.12-.06 14.6v2.42l2.36.52 14.25 3.19 11.37 9.15 1.88 1.51 1.88-1.51 11.38-9.15 14.24-3.19 2.36-.52v-2.37l-.06-14.6 6.39-13.12 1-2.17-1.89-1.5-11.45-9-6.26-13.23-1-2.18z"/><path class="cls-2" d="M117.94 42.07l9.48-2.2 4.18 8.78 7.63 6.04-4.26 8.74.05 9.73-9.5 2.12-7.58 6.1-7.58-6.1-9.49-2.12.04-9.73-4.26-8.74 7.63-6.04 4.19-8.78 9.47 2.2z"/><path class="cls-3" d="M112.71 70.84l-6.55-1.47.03-6.71-2.94-6.04 5.26-4.17 2.89-6.06 6.54 1.52 6.54-1.52 2.89 6.06 5.27 4.17-2.94 6.04.03 6.71-6.56 1.47-5.23 4.21-5.23-4.21z"/><path class="cls-2" d="M123.65 48.13l2.52 5.29 4.59 3.63-2.56 5.27v5.85l-5.71 1.28-4.57 3.67-4.56-3.67-5.72-1.28v-5.85l-2.57-5.27 4.6-3.63 2.52-5.29 5.7 1.32 5.71-1.32m1.67-3.47l-2.35.55-5 1.16-5-1.16-2.35-.55-1 2.18-2.22 4.66-4 3.2-1.89 1.49 1.06 2.17 2.16 4.64v7.57l2.36.53 5 1.13 4 3.23 1.9 1.54 1.88-1.51 4-3.23 5-1.13 2.35-.53V63l2.26-4.64 1.06-2.17-1.9-1.49-4-3.2-2.22-4.66-1-2.18z"/></g></g></svg>