<svg id="Слой_1" xmlns="http://www.w3.org/2000/svg" viewBox="0 0 275.9 187.7"><style>.st0{fill:#1f76a5}.st1{fill:#fff}.st2{fill:none;stroke:#fff}.st2,.st3,.st4{stroke-miterlimit:10}.st3{stroke-width:2;fill:#fff;stroke:#477ca8}.st4{fill:none;stroke:#c6c6c6}.st5{fill:#cd0812}</style><path class="st0" d="M1.5 1.5h233v154H1.5z"/><path class="st1" d="M233 3v151H3V3h230m3-3H0v157h236V0z"/><path class="st0" d="M3 3h230v8.1H3z"/><path class="st1" d="M7.6 11.1h221.2v13.4H7.6zm0 20.1h50.1v108.3H7.6zm53.3 0h114.3v31.4H60.9zm0 50.5h167.9v57.9H60.9zm115.3-50.5h52.6v31.4h-52.6zm16.1 37h36.5v10.3h-36.5zm-38.3 0h36.5v10.3H154z"/><path class="st2" d="M90.5 72.9h20.1v5.6H90.5zm-24.9 2.8h20.1"/><path class="st3" d="M162.2 73.4h20.1m18.7 0h20.1"/><path class="st2" d="M62.1 28.2H72m106.2 0h15.1m-185.7 0h10.6"/><path class="st4" d="M11.2 37.1h26.4m-26.4 5.7h39.7m-39.7 5.7h26.4m-26.4 5.7h13.2M11.2 60h26.4m-26.4 5.7h39.7m-39.7 5.7h26.4m-26.4 5.7h22.7m-22.7 5.7h26.4m-26.4 5.7h13.2m44.7.3h13.2m-13.2 5.4h13.2m-13.2 5.4h13.2M69.1 105h13.2m-13.2 5.4h13.2m-13.2 5.4h13.2m-13.2 5.4h13.2m-13.2 5.4h13.2m-13.2 5.3h13.2m33-43.1h13.3m-13.3 5.4h13.3m-13.3 5.4h13.3m-13.3 5.4h13.3m-13.3 5.4h13.3m-13.3 5.4h13.3m-13.3 5.4h13.3m-13.3 5.4h13.3m-13.3 5.3h13.3m33-43.1h13.2m-13.2 5.4h13.2m-13.2 5.4h13.2m-13.2 5.4h13.2m-13.2 5.4h13.2m-13.2 5.4h13.2m-13.2 5.4h13.2m-13.2 5.4h13.2m-13.2 5.3h13.2m33.1-43.1h13.2m-13.2 5.4h13.2m-13.2 5.4h13.2m-13.2 5.4h13.2m-13.2 5.4h13.2m-13.2 5.4h13.2m-13.2 5.4h13.2m-13.2 5.4h13.2m-13.2 5.3h13.2M11.2 94.2h39.7m-39.7 5.7h26.4m-26.4 5.7h33.4m-33.4 5.7h26.4M11.2 117h13.2m-13.2 5.7h26.4m-26.4 5.8h39.7"/><path class="st5" d="M228.6 186.2c-4.6 0-9.2-.7-13.7-2l-.8-.2-3.7-12.9-13 3.3-.6-.6c-6.9-6.4-11.6-14.6-13.7-23.7l-.2-.8 9.3-9.7-9.3-9.7.2-.8c2.1-9.1 6.8-17.3 13.7-23.7l.6-.6 13 3.3 3.7-12.9.8-.2c4.4-1.4 9-2 13.7-2 4.6 0 9.2.7 13.7 2l.8.2 3.7 12.9 13-3.3.6.6c6.9 6.4 11.6 14.6 13.7 23.7l.2.8-9.3 9.7 9.3 9.7-.2.8c-2.1 9.1-6.8 17.3-13.7 23.7l-.6.6-13-3.3-3.7 12.9-.8.2c-4.4 1.3-9 2-13.7 2zm0-66.1c-10.7 0-19.4 8.7-19.4 19.4s8.7 19.4 19.4 19.4 19.4-8.7 19.4-19.4-8.7-19.4-19.4-19.4z"/><path class="st1" d="M228.6 94.4c4.6 0 9 .7 13.2 2l3.9 13.6 13.6-3.4c6.5 6 11.2 14 13.2 22.9l-9.8 10.1 9.8 10.1c-2 8.9-6.7 16.9-13.2 22.9l-13.6-3.4-3.9 13.6c-4.2 1.3-8.6 2-13.2 2s-9-.7-13.2-2l-3.9-13.6-13.6 3.4c-6.5-6-11.2-14-13.2-22.9l9.8-10.1-9.8-10.1c2-8.9 6.7-16.9 13.2-22.9l13.6 3.4 3.9-13.6c4.2-1.3 8.6-2 13.2-2m0 66c11.5 0 20.9-9.4 20.9-20.9 0-11.5-9.4-20.9-20.9-20.9-11.5 0-20.9 9.4-20.9 20.9 0 11.6 9.4 20.9 20.9 20.9m0-69c-4.8 0-9.5.7-14.1 2.1l-1.5.5-.4 1.6-3.1 10.8-10.8-2.7-1.6-.4-1.2 1.1c-7.1 6.6-12 15-14.1 24.4l-.4 1.6 1.1 1.2 7.8 8-7.8 8-1.1 1.2.4 1.6c2.2 9.4 7 17.8 14.1 24.4l1.2 1.1 1.6-.4 10.8-2.7 3.1 10.8.4 1.6 1.6.5c4.6 1.4 9.3 2.1 14.1 2.1 4.8 0 9.5-.7 14.1-2.1l1.6-.5.4-1.6 3.1-10.8 10.8 2.7 1.6.4 1.2-1.1c7.1-6.6 12-15 14.1-24.4l.4-1.6-1.1-1.2-7.8-8 7.8-8 1.1-1.2-.4-1.6c-2.2-9.4-7-17.8-14.1-24.4l-1.2-1.1-1.6.4-10.8 2.7-3.1-10.8-.4-1.6-1.6-.5c-4.6-1.4-9.4-2.1-14.2-2.1zm0 66c-9.9 0-17.9-8-17.9-17.9 0-9.9 8-17.9 17.9-17.9s17.9 8 17.9 17.9c0 9.9-8 17.9-17.9 17.9z"/><circle class="st1" cx="228.6" cy="139.5" r="19.6"/></svg>