<svg id="Слой_1" xmlns="http://www.w3.org/2000/svg" viewBox="0 0 258.4 207.3"><style>.st0{fill:#1f76a5}.st1{fill:#fff}.st2{fill:#cd0812}.st3{fill:none;stroke:#fff;stroke-width:5;stroke-miterlimit:10}</style><path class="st0" d="M101.2 10.7h146.3V112H101.2z"/><path class="st1" d="M246.1 12.2v98.3H102.7V12.2h143.4m3-3H99.7v104.3H249V9.2h.1z"/><path class="st1" d="M113.4 19.5h10v24.3h-10zm0 30.5h10v24.3h-10zm0 30.4h10v24.3h-10zm23.3-60.9h10v24.3h-10zm0 30.5h10v24.3h-10zm0 30.4h10v24.3h-10zm23.4-60.9h10v24.3h-10zm0 30.5h10v24.3h-10zm0 30.4h10v24.3h-10zm23.4-60.9h10v24.3h-10zm0 30.5h10v24.3h-10zm0 30.4h10v24.3h-10zm23.4-60.9h10v24.3h-10zm0 30.5h10v24.3h-10zm0 30.4h10v24.3h-10zm23.4-60.9h10v24.3h-10zm0 30.5h10v24.3h-10zm0 30.4h10v24.3h-10z"/><path class="st0" d="M2.3 58h152v119.3H2.3z"/><path class="st1" d="M152.8 59.5v116.3H3.8V59.5h149m3-3H.8v122.3h155V56.5z"/><path class="st1" d="M10.5 64.8h135.6v95.7H10.5z"/><path class="st0" d="M5.2 205.8l24.7-15.7h96.9l24.7 15.7z"/><path class="st1" d="M126.3 191.6l20 12.7h-136l20-12.7h96m.9-3H29.4l-.7.5-20 12.7-8.7 5.5h156.6l-8.7-5.5-20-12.7-.7-.5z"/><path class="st0" d="M75.3 175.2h6.2v21.3h-6.2z"/><circle class="st1" cx="78.3" cy="168.2" r="4.6"/><path class="st2" d="M226.7 61.9c-16.7 0-30.2-13.5-30.2-30.2S210 1.5 226.7 1.5s30.2 13.5 30.2 30.2-13.6 30.2-30.2 30.2z"/><path class="st1" d="M226.7 3c15.8 0 28.7 12.8 28.7 28.7s-12.8 28.7-28.7 28.7S198 47.5 198 31.7 210.8 3 226.7 3m0-3C209.2 0 195 14.2 195 31.7s14.2 31.7 31.7 31.7 31.7-14.2 31.7-31.7S244.2 0 226.7 0z"/><path class="st3" d="M211.9 16.8l30.8 30.8m-30.8 0l30.8-30.8"/></svg>