<svg id="Слой_1" xmlns="http://www.w3.org/2000/svg" viewBox="0 0 137.6 159.5"><style>.st0{fill:#1f76a5}.st1{fill:#fff}.st2{fill:#cd0812}</style><path class="st0" d="M1.5 1.5h88.7V158H1.5z"/><path class="st1" d="M88.7 3v153.5H3V3h85.7m3-3H0v159.5h91.7V0z"/><path class="st1" d="M11.3 14.5h69.1v114.9H11.3z"/><circle class="st1" cx="45.8" cy="143.3" r="7.5"/><path class="st2" d="M99 122.7c-.8 0-1.6.3-2.2.9-.6.6-.9 1.3-.9 2.1v12.7c0 .8.3 1.6.9 2.2.6.6 1.3.9 2.2.9.8 0 1.6-.3 2.1-.9.6-.6.9-1.3.9-2.2v-12.7c0-.8-.3-1.5-.9-2.1-.5-.6-1.2-.9-2.1-.9zm24.5-11.4l2.1-3.9c.1-.3.1-.5-.1-.6-.3-.1-.5-.1-.6.2l-2.1 3.9c-1.9-.8-3.9-1.2-5.9-1.2-2.1 0-4.1.4-5.9 1.2l-2.1-3.9c-.1-.2-.3-.3-.6-.2-.2.1-.3.3-.1.6l2.1 3.9c-2.1 1.1-3.8 2.6-5.1 4.5-1.3 1.9-1.9 4.1-1.9 6.4h27.3c0-2.3-.6-4.4-1.9-6.4-1.4-1.9-3.1-3.4-5.2-4.5zm-12.1 5.6c-.2.2-.5.3-.8.3s-.6-.1-.8-.3c-.2-.2-.3-.5-.3-.8 0-.3.1-.6.3-.8.2-.2.5-.3.8-.3.3 0 .6.1.8.3.2.2.3.5.3.8 0 .4-.1.6-.3.8zm12.4 0c-.2.2-.5.3-.8.3-.3 0-.6-.1-.8-.3-.2-.2-.3-.5-.3-.8 0-.3.1-.6.3-.8.2-.2.5-.3.8-.3.3 0 .6.1.8.3.2.2.3.5.3.8.1.4 0 .6-.3.8zM103.2 143c0 .9.3 1.7.9 2.3.6.6 1.4.9 2.3.9h2.2v6.7c0 .8.3 1.6.9 2.2.6.6 1.3.9 2.1.9s1.6-.3 2.2-.9c.6-.6.9-1.3.9-2.2v-6.7h4.1v6.7c0 .8.3 1.6.9 2.2.6.6 1.3.9 2.2.9.8 0 1.6-.3 2.2-.9.6-.6.9-1.3.9-2.2v-6.7h2.2c.9 0 1.6-.3 2.3-.9.6-.6.9-1.4.9-2.3v-19.7h-27.1V143zm31.4-20.3c-.8 0-1.5.3-2.1.9-.6.6-.9 1.3-.9 2.1v12.7c0 .8.3 1.6.9 2.2.6.6 1.3.9 2.1.9s1.6-.3 2.2-.9c.6-.6.9-1.3.9-2.2v-12.7c0-.8-.3-1.6-.9-2.1-.7-.6-1.4-.9-2.2-.9zm-5.2-55c-.1-6.2 5.1-9.2 5.3-9.4-2.9-4.2-7.4-4.8-9-4.9-3.8-.4-7.5 2.3-9.4 2.3-1.9 0-4.9-2.2-8.1-2.1-4.2.1-8 2.4-10.2 6.2-4.3 7.5-1.1 18.7 3.1 24.8 2.1 3 4.5 6.3 7.8 6.2 3.1-.1 4.3-2 8.1-2s4.8 2 8.1 2c3.4-.1 5.5-3 7.5-6 2.4-3.5 3.3-6.8 3.4-7 0-.2-6.5-2.6-6.6-10.1zm-6.2-18.3c1.7-2.1 2.9-5 2.6-7.9-2.5.1-5.5 1.6-7.2 3.7-1.6 1.8-3 4.8-2.6 7.6 2.7.3 5.5-1.3 7.2-3.4zm0 0"/></svg>