<svg id="Слой_1" xmlns="http://www.w3.org/2000/svg" xmlns:xlink="http://www.w3.org/1999/xlink" viewBox="0 0 722.3 511.5"><style>.st0,.st1{clip-path:url(#SVGID_2_);fill:#1f76a5}.st1{fill:#cd0812}</style><defs><path id="SVGID_1_" d="M0 0h722.3v511.5H0z"/></defs><clipPath id="SVGID_2_"><use xlink:href="#SVGID_1_" overflow="visible"/></clipPath><path class="st0" d="M71.5 511.5H683c21.7 0 39.3-17.6 39.3-39.2V94c0-21.7-17.6-39.3-39.3-39.3h-18V37.3c0-3.5-2.9-6.3-6.3-6.3h-97.5c-3.5 0-6.2 2.8-6.2 6.3v17.4h-73.8L449.8 7.2c0-4-3.8-7.2-8.4-7.2H313.2c-4.6 0-8.5 3.2-8.5 7.2l-31.3 47.5H71.5c-21.7 0-39.3 17.6-39.3 39.3v26.3H16.6c-9.2 0-16.6 7.4-16.6 16.6v50.7c0 9.1 7.4 16.6 16.6 16.6h15.6v268c0 21.7 17.6 39.3 39.3 39.3m434-407.4h162.7v59.6H505.6v-59.6h-.1zm-128.2 41.6c81.5 0 147.5 66 147.5 147.5s-66.1 147.5-147.5 147.5c-81.5 0-147.5-66-147.5-147.5 0-81.4 66-147.5 147.5-147.5m-358.9-7.1h13.8v47.3H18.4v-47.3z"/><path class="st1" d="M278.9 293.3c0 54.3 44 98.4 98.4 98.4 54.3 0 98.3-44.1 98.3-98.4 0-54.3-44-98.3-98.3-98.3-54.4-.1-98.4 43.9-98.4 98.3"/></svg>