<svg id="Слой_1" xmlns="http://www.w3.org/2000/svg" xmlns:xlink="http://www.w3.org/1999/xlink" viewBox="0 0 349.3 346.2"><style>.st0{fill:#1f76a5}.st0,.st1,.st2{clip-path:url(#SVGID_2_)}.st1{fill:#cd0812}.st2{fill:#fefefe}</style><defs><path id="SVGID_1_" d="M0 0h349.3v346.2H0z"/></defs><clipPath id="SVGID_2_"><use xlink:href="#SVGID_1_" overflow="visible"/></clipPath><path class="st0" d="M251.4 99.5c-2.1-2.1-4.2-1.1-5.8 1.6 0 0 7.4-40.2 2.1-57.7C235-.6 130.2-12.7 130.2 14.3c-44.5 12.7-36 55.1-29.6 87.4 0 0-3.2-4.3-7.4 0-4.8 4.8.5 17.5 2.6 23.3 1.1 4.8 2.6 7.4 3.7 10.1v1.6c0 4.3 1.6 8 4.2 8 10.6 39.7 41.8 72.5 69.9 72.5 25.9 0 57.7-32.8 67.8-72.5 2.1-.5 3.7-3.7 3.7-8v-1.1c1.6-2.1 3.2-5.8 4.2-10.6 1.5-5.4 7.9-21.8 2.1-25.5"/><path class="st1" d="M289.5 159.3c-32.3 0-59.3 26.5-59.3 59.3s27 59.3 59.3 59.3c32.8 0 59.8-26.5 59.8-59.3s-27-59.3-59.8-59.3"/><path class="st0" d="M123.3 214.9C41.2 260.4 0 234.5 0 346.2h345.2c0-36.5-4.8-58.8-14.3-72.5-11.1 8.5-25.9 13.2-41.3 13.2-37.6 0-68.3-30.7-68.3-68.3V217l-29.1 84.7-9-57.7c.5 0 .5-.5 1.1-.5 3.2-2.6 7.4-10.1 7.4-14.8 0-6.3-12.2-1.1-19.6-1.1-7.4 0-18.5-5.3-18.5 1.1 0 4.8 4.8 12.2 7.9 14.8l-7.4 52.4-30.8-81z"/><path class="st2" d="M320.2 227.1H299v21.7h-18v-21.7h-21.2v-18H281v-20.7h18v20.7h21.2z"/></svg>