<svg id="Слой_1" xmlns="http://www.w3.org/2000/svg" viewBox="0 0 58.8 55.5"><style>.st0{clip-path:url(#SVGID_2_);fill:#1f76a5}</style><defs><path id="SVGID_1_" d="M0 0h58.8v55.5H0z"/></defs><clipPath id="SVGID_2_"/><path class="st0" d="M22.1 34.9V18.7c0-1.3 1-2.3 2.3-2.3h10.2c1.3 0 2.3 1 2.3 2.3V51c0 2.5-2 4.5-4.5 4.5h-5.8c-2.4 0-4.4-2-4.4-4.4-.1-5.4-.1-10.8-.1-16.2zm-3.4 2.8v10.1c0 .3-.1.4-.4.4h-4.9c-2.1 0-3.8-1.7-4.2-3.6-.1-.3-.1-.6-.1-.9V32.6c0-1.2-.2-2.3-.9-3.3-.7-.9-1.6-1.5-2.8-1.5-2.2 0-4.3-1.2-5.1-3.2-.2-.5-.3-.9-.3-1.3v-4.8c0-.3.1-.3.3-.3h8.6c2.8.1 5.1 1.2 7 3.2 1.8 1.9 2.7 4.3 2.7 6.9.1 3.1.1 6.2.1 9.4zm21.5-.1V28c0-2.8 1.2-5.2 3.3-7.2 1.9-1.8 4.3-2.7 6.9-2.7h8.1c.3 0 .4.1.4.4v4.8c0 1.1-.5 2-1.2 2.8-.6.6-1.3 1.1-2.2 1.4-.5.2-.9.3-1.4.3-.8 0-1.7.1-2.4.6-1.1.7-1.6 1.8-1.8 3.1-.1.5-.1 1-.1 1.5v10.7c0 2.5-2.2 4.5-4.5 4.5h-4.8c-.3 0-.4-.1-.4-.4.1-3.4.1-6.8.1-10.2zM23.1 9.3c-.3-.9-.4-1.7-.4-2.7 0-3 2.3-5.8 5.3-6.5 3.8-.8 7.4 1.6 8.2 5.4.3 1.3.1 2.5-.3 3.7-.4.8-.8 1.6-1.5 2.2-1.3 1.3-2.8 2-4.6 2.1-1.9.1-3.6-.6-5-1.9-.6-.6-1.1-1.3-1.5-2.1-.1 0-.2-.1-.2-.2m-15.7 0c.5-2.9 3-4.9 5.8-4.8 2.6.1 4.9 2.1 5.4 4.8.5 3.3-1.7 5.7-4.1 6.4-3.6 1-7.2-1.7-7.2-5.4.1-.4.1-.7.1-1m32.8 0c.5-2.9 3-4.8 5.7-4.8 2.7.1 5 2 5.5 4.8.5 3.3-1.7 5.7-4.1 6.4-3.6 1-7.2-1.7-7.2-5.4.1-.4.1-.7.1-1"/></svg>