<svg id="Слой_1" xmlns="http://www.w3.org/2000/svg" viewBox="0 0 134.3 77.6"><style>.st0{fill:#2177a6}.st1{fill:#cd1417}</style><path class="st0" d="M74.5 23.7c-4.1-9.5-11-16.5-20.7-20.6C49 1 44 0 38.7 0c-5.3 0-10.3 1-15.1 3.1C14.1 7.2 7.1 14.1 3 23.7c-2 4.8-3 9.8-3 15C0 44 1 49.1 3.1 53.8c4.1 9.6 11.1 16.5 20.6 20.6 4.8 2.1 9.8 3.1 15.1 3.1 5.3 0 10.3-1 15.1-3.1 9.6-4.1 16.6-11.1 20.7-20.6 2.1-4.8 3.1-9.8 3.1-15.1-.1-5.2-1.1-10.2-3.2-15zM54.4 57c-1 1-2.8 1-3.8 0L35.8 42.1c-.6-.6-.8-1.3-.7-2.2 0-.1-.1-.3-.1-.4V13.4c0-1.5 1.3-2.8 2.7-2.8 1.5 0 2.9 1.2 2.9 2.8v25.7l13.9 14c1 1.1 1.1 2.7-.1 3.9z"/><path class="st1" d="M91.3 21.1h43v4.7h-43zm0 15.3h28v4.7h-28zm0 15.4h18v4.7h-18z"/></svg>