<svg id="Слой_1" xmlns="http://www.w3.org/2000/svg" viewBox="0 0 252.5 252.5"><style>.st0{opacity:.14;fill:#87a9c6}.st1{fill:#1f76a5}.st2{fill:#fff}.st3{stroke:#fff;stroke-miterlimit:10}.st3,.st4{fill:none}.st4,.st5{stroke-miterlimit:10}.st4,.st5{stroke:#c6c6c6}.st5{fill:#fff}.st6{fill:#cd0812}.st7{fill:#2d719b}.st8{fill:#fefefe}.st9{fill:none;stroke:#2d719b;stroke-miterlimit:10}</style><circle class="st0" cx="126.2" cy="126.2" r="126.2"/><path class="st1" d="M11.2 26.6h230v151h-230z"/><path class="st1" d="M11.2 26.6h230v8.1h-230z"/><path class="st2" d="M15.8 34.7H237v13.4H15.8zm0 20.1h50.1v108.3H15.8zm53.3 0h114.3v31.4H69.1zm0 50.5H237v57.9H69.1zm115.4-50.5h52.6v31.4h-52.6zm16 37H237v10.3h-36.5zm-38.2 0h36.5v10.3h-36.5z"/><path class="st3" d="M98.7 96.4h20.1v5.6H98.7zm-24.8 2.9H94m76.5-2.3h20.1m18.6 0h20.1m-159-45.2h9.9m106.2 0h15.2m-185.7 0h10.5"/><path class="st4" d="M19.4 60.7h26.4m-26.4 5.7h39.8m-39.8 5.7h26.4m-26.4 5.7h13.2m-13.2 5.7h26.4m-26.4 5.8h39.8M19.4 95h26.4m-26.4 5.7h22.8m-22.8 5.7h26.4m-26.4 5.7h13.2m44.7.3h13.2m-13.2 5.4h13.2m-13.2 5.4h13.2m-13.2 5.4h13.2M77.3 134h13.2m-13.2 5.4h13.2m-13.2 5.3h13.2m-13.2 5.4h13.2m-13.2 5.4h13.2m33.1-43.1h13.2m-13.2 5.4h13.2m-13.2 5.4h13.2m-13.2 5.4h13.2m-13.2 5.4h13.2m-13.2 5.4h13.2m-13.2 5.3h13.2m-13.2 5.4h13.2m-13.2 5.4h13.2m33-43.1h13.3m-13.3 5.4h13.3m-13.3 5.4h13.3m-13.3 5.4h13.3m-13.3 5.4h13.3m-13.3 5.4h13.3m-13.3 5.3h13.3m-13.3 5.4h13.3m-13.3 5.4h13.3m33-43.1h13.2m-13.2 5.4h13.2m-13.2 5.4h13.2m-13.2 5.4h13.2m-13.2 5.4h13.2m-13.2 5.4h13.2m-13.2 5.3h13.2m-13.2 5.4h13.2m-13.2 5.4h13.2M19.4 117.8h39.8m-39.8 5.7h26.4m-26.4 5.7h33.4m-33.4 5.7h26.4m-26.4 5.7h13.2m-13.2 5.7h26.4M19.4 152h39.8"/><path class="st5" d="M76.5 207.3l-.3 2.4c-.2 1.9-.5 3.7-.7 5.6-.2 1.4-.4 2.8-.6 4.3-.2.9-.4 1.8-.8 2.7-.7 1.6-1.8 2.8-3.3 3.6-1.9.9-3.8 1.5-5.9 1.5-2.4 0-4.3-1.1-5.6-3.1-.9-1.4-1.3-2.9-1.5-4.5-.4-3.7-.4-7.4-.4-11.2v-.4c-.5.4-.9.8-1.5 1.1-1.7 1-3.6 1.3-5.6 1.2-1.3-.1-2.5-.3-3.6-.9-.4-.2-.8-.5-1.1-.9-.6-.8-.5-1.8.3-2.4.7-.5 1.4-.7 2.2-.9.9-.2 1.8-.4 2.6-.7.5-.2.9-.5 1.2-.9.3-.4.7-.8 1-1.3 0-.1.1-.1.1-.2s-.1 0-.2 0c-1.2-.1-2.4-.4-3.4-.9-.2-.1-.2-.1-.3.1l-5.1 5.7c-.5.6-1 1.1-1.5 1.5-1.5 1.1-3.3 1.1-4.8 0-1-.7-1.8-1.6-2.5-2.6-1.3-2-2.3-4.1-3.2-6.4-1.4-3.6-2.5-7.3-3.4-11.1-.6-2.4-1.1-4.9-1.5-7.4-.5-3.5-.5-7 .7-10.5 1.4-4.2 4.4-6.8 8.8-7.7 2.2-.5 4.5-.5 6.8-.2 2.8.3 5.5 1 8.2 1.9.1.1.3 0 .4-.1 2-1.3 4.2-2 6.6-2.1 2.1-.2 4.2 0 6.3.5h.3c1.9-.6 3.9-1 5.8-1.2 1.6-.1 3.2-.2 4.8 0 5.2.5 9.5 2.7 12.8 6.9.7.9 1 1.9 1.1 3 .3 1.9.1 3.9-.1 5.8-1 6.7-3.4 13-6.6 18.9-.8 1.5-1.6 2.9-2.6 4.3-.1.2-.1.3.1.3.7.4 1.5.4 2.3.5 1.5 0 2.9-.2 4.3-.5.6-.1 1.1-.2 1.7-.1 1.2.1 1.8 1.2 1.2 2.2-.4.7-.9 1.2-1.5 1.7-1.8 1.4-3.8 2.3-6.1 2.6-1.4.2-2.7.3-4.1.2-.8-.1-1.3-.2-1.8-.3z"/><path class="st5" d="M55.2 200.5c.9-.1 1.7.1 2.4.6 1.1.8 1.6 1.9 1.6 3.2v2.8c0 3.7 0 7.5.4 11.2.1 1.2.4 2.3 1 3.4.9 1.5 2.1 2.3 3.8 2.4 1.3 0 2.5-.3 3.6-.6 2.2-.7 3.6-2.2 4.1-4.4.3-1.2.4-2.4.6-3.6.2-1.7.5-3.5.7-5.2.2-1.5.3-3 .5-4.5.1-.8 0-1.6.1-2.3.2-1.3.9-2.3 2.2-2.8.2-.1.3-.1.5-.2-.1-.2-.3-.3-.4-.5-.7-.9-1.4-1.8-1.8-2.8-.5-1.1-1.1-2.1-1.6-3.1-1.1-2-2.1-4.1-2.9-6.2-.5-1.5-.9-3.1-.7-4.7.2-1.8 1-3.1 2.7-3.8 1-.5 2.1-.6 3.2-.6.6 0 1.2 0 1.7.1.2 0 .2-.1.2-.2s-.1-.2-.1-.3c-.6-1.6-1.5-3.1-2.5-4.5-1.8-2.5-4-4.5-6.7-5.9-3.2-1.7-6.7-2.3-10.3-1.9-2.1.3-4 1.1-5.7 2.5-1.5 1.3-2.6 3-3.4 4.8-.8 1.9-1.3 4-1.6 6.1-.1.4-.1.9-.2 1.3.5-.2.9-.4 1.3-.6 1.6-.7 3.2-1.1 4.9-1.1 1 0 1.9.3 2.7.9 1 .7 1.6 1.8 1.9 3 .4 1.6.6 3.3.7 5 .1 2.1 0 4.2-.7 6.2-.4 1.2-1 2.3-1.4 3.5-.2.7-.6 1.7-.8 2.8-.1 0-.1 0 0 0z"/><path class="st5" d="M41.1 165.8c-.8 0-1.7.1-2.6.2-1.5.2-3 .7-4.3 1.6-1.9 1.2-3 3-3.6 5.1-.9 2.9-.9 5.8-.5 8.7.4 2.9 1.1 5.7 1.8 8.6.9 3.4 1.9 6.8 3.3 10.1.7 1.7 1.5 3.4 2.6 4.9.5.7 1.1 1.4 1.9 1.8.6.3 1.2.3 1.9 0 .4-.2.8-.6 1.1-1 1.6-1.9 3.3-3.9 5-5.7.1-.1.1-.2 0-.3-.5-.5-1-1-1.4-1.6-1.5-2.3-2-4.7-1.6-7.4.3-1.8.3-3.6.2-5.4 0-1-.1-2-.1-3 0-2.1.3-4.1.7-6.2.8-3.2 2-6.2 4.4-8.6.1-.1.1-.2-.1-.2-2.7-1-5.6-1.5-8.7-1.6zM78 198.9c.3-.4.5-.8.8-1.3 3.6-6.2 6.3-12.7 7.4-19.7.2-1.6.4-3.2.1-4.9-.1-.7-.2-1.4-.7-2.1-.7-.9-1.5-1.7-2.4-2.4-2.8-2.3-6.1-3.3-9.6-3.5-1.6-.1-3.3 0-4.9.3-.4.1-.7.1-1.1.2.5.2 1 .5 1.4.7 4.6 2.6 7.8 6.5 9.8 11.4.3.6.5 1.3.5 2 0 1.3-.1 2.5-.3 3.8-.4 2.1-.4 4.1-.1 6.2.2 1.4.4 2.9.2 4.3-.1 1.5-.5 3-1.2 4.3-.2.3-.2.3.1.7z"/><path class="st5" d="M56.5 189.3c0-2.4-.3-4.4-.8-6.4-.3-1.3-1.3-2.1-2.6-2.2-1-.1-1.9.1-2.8.4-1.2.3-2.2.8-3.2 1.5-.2.1-.3.3-.3.5 0 .4 0 .7.1 1.1.1 2.4.1 4.8-.2 7.2-.3 2 .1 3.9 1.3 5.6 1.3 1.8 3 2.9 5.2 3 .2 0 .2 0 .3-.2.4-1.4.9-2.9 1.6-4.2.8-2.1 1.4-4.3 1.4-6.3zm20 7.5c.1-.2.1-.3.2-.5.4-1 .6-2.1.6-3.2 0-1.4-.2-2.8-.3-4.2-.2-1.9-.2-3.8.2-5.7.1-.8.3-1.7.3-2.5 0-.1 0-.2-.1-.2-1.2-.1-2.4-.2-3.6.1-1.6.4-2.4 1.4-2.4 3 0 .8.1 1.6.3 2.3.5 1.9 1.3 3.6 2.1 5.3.9 1.8 2 3.5 2.8 5.3-.2.2-.2.2-.1.3zM47.6 207c.3.2.5.3.8.4 1.1.4 2.3.5 3.5.4 2.2-.1 4-1.1 5.2-2.9.1-.2.2-.4.2-.6 0-.7-.2-1.2-.8-1.6-.7-.5-1-.4-1.5.1l-.3.3-1.2 1.5c-.5.6-1 1-1.7 1.3-.7.3-1.4.5-2.1.6-.7.1-1.4.2-2.1.5zm38.5-4.4h-.2c-1.4.3-2.9.5-4.4.5-1.3 0-2.5-.2-3.6-.9-.1-.1-.1-.1-.2 0-.3.1-.5.2-.8.2-.5.2-.8.5-.9 1-.1.4-.2.9-.2 1.3 0 .2.1.3.2.3.5.2 1 .2 1.4.3 1 .1 2.1 0 3.1-.2 1.9-.3 3.7-1 5.2-2.2.3-.2.4-.2.4-.3z"/><path class="st6" d="M55.1 200.4c.2-1 .6-2 1-3 .5-1.2 1-2.3 1.4-3.5.6-2 .8-4.1.7-6.2-.1-1.7-.3-3.3-.7-5-.3-1.2-.8-2.3-1.9-3-.8-.6-1.7-.8-2.7-.9-1.7-.1-3.3.4-4.9 1.1-.4.2-.9.4-1.3.6.1-.5.1-.9.2-1.3.3-2.1.8-4.1 1.6-6.1.8-1.8 1.8-3.5 3.4-4.8 1.6-1.4 3.5-2.3 5.7-2.5 3.6-.4 7.1.2 10.3 1.9 2.7 1.4 4.9 3.4 6.7 5.9 1 1.4 1.9 2.9 2.5 4.5 0 .1.1.2.1.3.1.2.1.3-.2.2-.6-.1-1.2-.1-1.7-.1-1.1 0-2.2.2-3.2.6-1.6.8-2.5 2.1-2.7 3.8-.2 1.6.2 3.2.7 4.7.7 2.2 1.8 4.2 2.9 6.2.6 1 1.1 2 1.6 3.1.5 1 1.1 1.9 1.8 2.8.1.2.3.3.4.5-.2.1-.3.1-.5.2-1.3.5-2 1.5-2.2 2.8-.1.8-.1 1.5-.1 2.3-.2 1.5-.3 3-.5 4.5-.2 1.7-.4 3.5-.7 5.2-.2 1.2-.3 2.4-.6 3.6-.5 2.3-1.9 3.7-4.1 4.4-1.2.4-2.4.7-3.6.6-1.7-.1-3-.9-3.8-2.4-.6-1-.9-2.2-1-3.4-.4-3.7-.4-7.5-.4-11.2 0-.9.1-1.8 0-2.8 0-1.3-.6-2.4-1.6-3.2-.9-.2-1.7-.5-2.6-.4.1.1.1.1 0 0z"/><path class="st6" d="M41.1 165.8c3.1 0 6 .6 8.8 1.5.2.1.2.1.1.2-2.4 2.4-3.6 5.4-4.4 8.6-.5 2-.7 4.1-.7 6.2 0 1 .1 2 .1 3 .1 1.8 0 3.6-.2 5.4-.4 2.7 0 5.2 1.6 7.4.4.6.9 1.1 1.4 1.6.1.1.1.2 0 .3-1.7 1.8-3.4 3.8-5 5.7-.3.4-.7.7-1.1 1-.6.3-1.2.3-1.9 0-.8-.4-1.4-1.1-1.9-1.8-1.1-1.5-1.9-3.2-2.6-4.9-1.4-3.3-2.4-6.6-3.3-10.1-.7-2.8-1.4-5.7-1.8-8.6-.4-2.9-.4-5.8.5-8.7.6-2.1 1.8-3.9 3.6-5.1 1.3-.9 2.8-1.4 4.3-1.6.8 0 1.7-.1 2.5-.1zM78 198.9c-.3-.4-.3-.4-.1-.7.7-1.3 1.1-2.8 1.2-4.3.1-1.5 0-2.9-.2-4.3-.3-2.1-.3-4.1.1-6.2.2-1.2.3-2.5.3-3.8 0-.7-.2-1.3-.5-2-2-4.9-5.1-8.8-9.8-11.4-.4-.3-.9-.5-1.4-.7.4-.1.7-.2 1.1-.2 1.6-.3 3.3-.4 4.9-.3 3.6.2 6.8 1.2 9.6 3.5.9.7 1.7 1.5 2.4 2.4.5.6.6 1.3.7 2.1.2 1.6.1 3.2-.1 4.9-1.1 7.1-3.8 13.6-7.4 19.7-.3.4-.5.8-.8 1.3z"/><path class="st6" d="M56.5 189.3c.1 2-.6 4.2-1.6 6.4-.6 1.4-1.1 2.8-1.6 4.2-.1.2-.1.2-.3.2-2.2-.1-4-1.2-5.2-3-1.2-1.7-1.6-3.6-1.3-5.6.3-2.4.4-4.8.2-7.2 0-.4 0-.7-.1-1.1 0-.3.1-.4.3-.5 1-.7 2.1-1.2 3.2-1.5.9-.3 1.9-.5 2.8-.4 1.4.1 2.3.8 2.6 2.2.7 1.9 1 3.9 1 6.3zm-3.7-7.5c-.3 0-.6 0-.9.2-.4.2-.5.5-.4.8.3.7.8 1.1 1.5 1.2.7.1 1.3-.1 1.7-.7.3-.4.2-.7-.1-1-.1-.1-.3-.2-.4-.2-.4-.2-.9-.3-1.4-.3zm23.7 15c-.1-.1-.1-.1-.1-.2-.8-1.8-1.9-3.5-2.8-5.3-.8-1.7-1.6-3.5-2.1-5.3-.2-.8-.3-1.5-.3-2.3 0-1.7.8-2.7 2.4-3 1.2-.3 2.4-.2 3.6-.1.2 0 .2.1.1.2 0 .8-.1 1.7-.3 2.5-.3 1.9-.4 3.8-.2 5.7.2 1.4.4 2.8.3 4.2 0 1.1-.2 2.2-.6 3.2.1.1.1.2 0 .4zm-2-15.5c-.6 0-1.1.1-1.6.4-.4.3-.4.6-.1.9 1 1.1 2.3.5 2.8-.5.2-.3.1-.6-.3-.7-.3-.1-.5-.1-.8-.1zM47.6 207c.7-.3 1.4-.4 2.1-.6.7-.2 1.4-.3 2.1-.6.7-.3 1.2-.7 1.7-1.3l1.2-1.5.3-.3c.5-.5.8-.6 1.5-.1.5.4.8 1 .8 1.6 0 .2-.1.4-.2.6-1.3 1.8-3 2.8-5.2 2.9-1.2.1-2.3-.1-3.5-.4-.3 0-.5-.1-.8-.3zm38.5-4.4c0 .1-.1.2-.2.2-1.5 1.2-3.3 2-5.2 2.2-1 .1-2.1.2-3.1.2-.5 0-1-.1-1.4-.3-.2-.1-.2-.2-.2-.3 0-.4 0-.9.2-1.3.1-.5.4-.8.9-1 .3-.1.5-.2.8-.2h.2c1.1.8 2.3.9 3.6.9 1.5 0 2.9-.2 4.4-.5-.1.1 0 .1 0 .1z"/><path class="st7" d="M55.2 200.5c-.1 0-.1 0 0 0z"/><path class="st8" d="M52.8 181.8c.5 0 .9.1 1.4.3.1.1.3.1.4.2.4.3.4.6.1 1-.4.5-1 .8-1.7.7-.7-.1-1.2-.6-1.5-1.2-.1-.3 0-.6.4-.8.3-.2.6-.2.9-.2zm21.7-.5c.3 0 .5 0 .8.1.4.1.5.4.3.7-.5 1-1.8 1.6-2.8.5-.3-.3-.3-.7.1-.9.5-.3 1-.4 1.6-.4z"/><path class="st5" d="M170 205.1c.1 1.6-.1 3.5.1 5.4.1.8.3 1.6.6 2.3.4.9.9 1.7 1.6 2.3.5.5 1 1 1.6 1.4.8.5 1.5.9 2.4 1.1.8.2 1.7.3 2.5.4h2.8c.4 0 .6.2.7.5.1.2.2.5.3.7.4.8.8 1.5 1.3 2.2.4.4.7.8 1.1 1.2.5.5 1.2.9 1.9 1.2 1 .5 2.1.8 3.3.8h5.4c1.5 0 2.9-.3 4.3-1 1-.5 1.8-1.3 2.5-2.1.8-.9 1.3-1.9 1.6-3.1.1-.4.3-.5.7-.5h3.5c.4 0 .8-.1 1.2-.2 1.3-.3 2.4-.8 3.5-1.6 1.1-.9 1.9-1.9 2.5-3.2.6-1.3.8-2.7.8-4.1v-9.1c0-.3.2-.4.4-.5 1.2-.2 2.4-.6 3.4-1.2.9-.5 1.7-1.2 2.4-2 .5-.7 1-1.3 1.4-2.1.4-.8.7-1.7.7-2.6v-8.9c0-.1 0-.3-.1-.4-.2-.2-.1-.4-.1-.6 0-.5 0-.5-.5-.5H218c-.4 0-.4 0-.3-.4.2-.9.2-1.9.1-2.8-.1-1.1-.4-2.1-.9-3.1-.1-.1-.1-.3-.1-.4-1.1-2.4-2.8-4.1-5.3-5.1-1.6-.6-3.3-.8-4.9-.5-1.4.2-2.7.7-3.8 1.5-.2.2-.3.1-.4-.1-.4-.9-1-1.7-1.7-2.4-1-1.1-2.2-1.9-3.6-2.5-2-.8-4-1-6.1-.6-3.2.7-5.5 2.5-7.1 5.3-.2.4-.2.4-.6.1-1.3-.9-2.7-1.4-4.2-1.5-1.1-.1-2.3 0-3.4.3-2.1.6-3.8 1.8-5.1 3.4-.8 1-1.2 2.1-1.6 3.2-.6 1.6-.7 3.3-.4 5.1.1.3 0 .4-.3.4h-6c-.2 0-.3 0-.3.2 0 .3 0 .7-.2 1-.1.1-.1.3-.1.4v8.5c0 .4.1.8.2 1.2.1.4.2.8.4 1.3.3.7.6 1.3 1.1 2 .2.4.6.7.9 1 .5.5.9.9 1.5 1.3.7.4 1.4.8 2.1 1.1.5.2 1 .3 1.5.4.5.1.7.2.7.7-.1 1.6-.1 3.2-.1 5.2z"/><path class="st6" d="M185.8 201.2V185c0-1.3 1-2.3 2.2-2.3h10.2c1.3 0 2.3 1 2.3 2.3v32.3c0 2.5-2 4.5-4.5 4.5h-5.8c-2.4 0-4.4-2-4.4-4.4v-16.2zm-3.4 2.7V214c0 .3-.1.4-.4.4h-4.9c-2.1 0-3.8-1.7-4.2-3.6-.1-.3-.1-.6-.1-.9v-11.1c0-1.2-.2-2.3-.9-3.3-.7-.9-1.6-1.5-2.8-1.5-2.2 0-4.3-1.2-5.1-3.2-.2-.4-.2-.8-.2-1.3v-4.8c0-.3.1-.3.3-.3h8.6c2.8.1 5.1 1.2 7 3.2 1.8 1.9 2.7 4.3 2.7 6.9v9.4zm21.5 0v-9.6c0-2.8 1.2-5.2 3.3-7.2 1.9-1.8 4.3-2.7 6.9-2.7h8.1c.3 0 .4.1.4.4v4.8c0 1.1-.5 2-1.2 2.8-.6.6-1.3 1.1-2.2 1.4-.5.2-.9.3-1.4.3-.8 0-1.7.1-2.4.6-1.1.7-1.6 1.8-1.8 3.1-.1.5-.1 1-.1 1.5V210c0 2.5-2.2 4.5-4.5 4.5h-4.8c-.3 0-.4-.1-.4-.4.1-3.5.1-6.8.1-10.2zm-17.1-28.4c-.3-.9-.4-1.7-.4-2.7 0-3.1 2.3-5.8 5.3-6.5 3.8-.8 7.4 1.6 8.2 5.4.3 1.3.1 2.5-.3 3.7-.4.8-.8 1.6-1.5 2.2-1.3 1.3-2.8 2-4.6 2.1-1.9.1-3.6-.6-5-1.9-.6-.6-1.1-1.3-1.5-2.1-.1 0-.2-.1-.2-.2zm-15.7.1c.5-2.9 3-4.9 5.8-4.8 2.6.1 4.9 2.1 5.4 4.8.5 3.3-1.7 5.7-4.1 6.4-3.6 1-7.2-1.7-7.2-5.4.1-.4.1-.7.1-1zm32.8-.1c.5-2.9 3-4.8 5.7-4.8 2.7.1 5 2 5.5 4.8.5 3.3-1.7 5.7-4.1 6.4-3.6 1-7.2-1.7-7.2-5.4.1-.3.1-.6.1-1z"/><path class="st9" d="M107.2 190.4h37m-18.5 18.5v-37"/></svg>