<svg id="Слой_1" xmlns="http://www.w3.org/2000/svg" xmlns:xlink="http://www.w3.org/1999/xlink" viewBox="0 0 240 326.7"><style>.st0{fill:#1e9938}.st1{fill:#d1dde8}.st2{fill:#fff}.st3{font-family:&apos;Arial,sans-serif&apos;}.st4{font-size:73.2055px}.st5{letter-spacing:4}.st6{clip-path:url(#SVGID_2_);fill:none;stroke:#fff;stroke-width:3;stroke-miterlimit:10}</style><path class="st0" d="M0 226.7h240v100H0zm161.5-224v75.8h75.8z"/><path class="st1" d="M0 0v212h240V92h-92V0z"/><text transform="translate(55.873 301.865)"><tspan x="0" y="0" class="st2 st3 st4 st5">J</tspan><tspan x="32" y="0" class="st2 st3 st4 st5">P</tspan><tspan x="75.9" y="0" class="st2 st3 st4">G</tspan></text><defs><path id="SVGID_1_" d="M0 0h240v326.7H0z"/></defs><clipPath id="SVGID_2_"><use xlink:href="#SVGID_1_" overflow="visible"/></clipPath><path class="st6" d="M71.5 285c0 9.7-3.4 12.2-9.1 12.2-2.1 0-4-.4-5.3-1l-1 5.2c1.6.7 4.5 1.2 6.8 1.2 8.5 0 14.9-4 14.9-17.1v-33h-6.4V285zm28.4-27.3c1.1-.3 3.2-.5 6-.5 7 0 11.6 3.1 11.6 9.7 0 6.8-4.7 10.5-12.4 10.5-2.1 0-3.9-.1-5.3-.5v-19.2zm-6.4 44.2h6.4v-19.8c1.5.4 3.2.4 5.1.4 6.2 0 11.7-1.8 15.1-5.4 2.5-2.6 3.8-6.1 3.8-10.5s-1.6-8-4.3-10.3c-2.9-2.6-7.5-4.1-13.8-4.1-5.1 0-9.2.4-12.2 1v48.7zM175 276h-16.3v5.1h10v14.7c-1.5.7-4.3 1.3-8.5 1.3-11.5 0-19-7.4-19-19.9 0-12.4 7.8-19.8 19.8-19.8 5 0 8.3 1 10.9 2.1l1.5-5.2c-2.1-1-6.6-2.3-12.3-2.3-16.5 0-26.6 10.8-26.7 25.5 0 7.7 2.6 14.3 6.9 18.4 4.8 4.6 11 6.5 18.4 6.5 6.7 0 12.3-1.7 15.2-2.7V276z"/></svg>