<svg id="Слой_1" xmlns="http://www.w3.org/2000/svg" xmlns:xlink="http://www.w3.org/1999/xlink" viewBox="0 0 79.5 71.3"><style>.st0{clip-path:url(#SVGID_2_);fill:#2076a6}</style><defs><path id="SVGID_1_" d="M0 0h79.5v71.3H0z"/></defs><clipPath id="SVGID_2_"><use xlink:href="#SVGID_1_" overflow="visible"/></clipPath><path class="st0" d="M76.7 0H2.8C1.3 0 0 1.3 0 2.8v54.4c0 .9.7 1.7 1.7 1.7H31c-.1 3.2-.9 9.8-4.2 11.2 0 0-1.3 1.2 2.4 1.2h21.2c3.7 0 2.4-1.2 2.4-1.2-3.4-1.4-4.1-7.9-4.2-11.2h29.6c.9 0 1.6-.7 1.6-1.7V2.8C79.5 1.3 78.2 0 76.7 0M37.8 53.2c0-1.1.9-1.9 1.9-1.9 1.1 0 1.9.9 1.9 1.9 0 1.1-.9 1.9-1.9 1.9-1 0-1.9-.8-1.9-1.9m39.3-5.1H2.4V2.8c0-.2.2-.4.4-.4h73.9c.2 0 .4.2.4.4v45.3z"/></svg>