<svg id="Слой_1" xmlns="http://www.w3.org/2000/svg" xmlns:xlink="http://www.w3.org/1999/xlink" viewBox="0 0 66.8 80.8"><style>.st0{clip-path:url(#SVGID_2_);fill:#fff}</style><defs><path id="SVGID_1_" d="M0 0h66.8v80.8H0z"/></defs><clipPath id="SVGID_2_"><use xlink:href="#SVGID_1_" overflow="visible"/></clipPath><path class="st0" d="M13.9 33.5L.8 24.7c-.2-.1-.4-.1-.5 0-.2.1-.3.3-.3.5V41c0 .2.1.3.2.4l13.1 8.7c.1.1.2.1.3.1.1 0 .2 0 .3-.1.2-.1.3-.3.3-.5V33.9c-.1-.2-.2-.3-.3-.4m0 20.1L.8 44.9c-.2-.1-.4-.1-.5 0-.2 0-.3.2-.3.4v15.9c0 .2.1.3.2.4l13.1 8.7c.1.1.2.1.3.1.1 0 .2 0 .3-.1.2-.1.3-.3.3-.5V54c-.1-.1-.2-.3-.3-.4m15.7-10.9l-13.1-7.9c-.2-.1-.4-.1-.5 0-.2.1-.3.3-.3.5v15.9c0 .2.1.3.2.4L29 60.3c.1.1.2.1.3.1.1 0 .2 0 .3-.1.2-.1.3-.3.3-.5V43.2c-.1-.2-.1-.4-.3-.5m0 21L16.5 55c-.2-.1-.4-.1-.5 0-.2.1-.3.3-.3.5v15.9c0 .2.1.3.2.4L29 80.4c.1.1.2.1.3.1.1 0 .2 0 .3-.1.2-.1.3-.3.3-.5V64.1c-.1-.2-.1-.3-.3-.4M61 24.9c-.2-.1-.4-.1-.5 0l-13.4 8.5c-.2.1-.2.3-.2.5l.3 16.2c0 .2.1.4.3.5.1 0 .2.1.2.1.1 0 .2 0 .3-.1l13-8.9c.1-.1.2-.3.2-.4V25.4c.1-.2 0-.4-.2-.5m0 20.2c-.2-.1-.4-.1-.5 0l-13.1 8.7c-.1.1-.2.3-.2.4v15.9c0 .2.1.4.3.5.1 0 .2.1.3.1.1 0 .2 0 .3-.1L61 61.9c.1-.1.2-.3.2-.4v-16c.1-.2 0-.3-.2-.4M45.3 35c-.2-.1-.4-.1-.5 0l-13.1 8c-.2.1-.3.3-.3.5v16.7c0 .2.1.4.3.5.1 0 .2.1.3.1.1 0 .2 0 .3-.1L45.4 52c.1-.1.2-.3.2-.4V35.5c0-.2-.1-.4-.3-.5M28.7 23.8c0-.2-.1-.4-.3-.5L16.1 16c-.2-.1-.3-.1-.5 0L2 22.9c-.2.1-.3.3-.3.5s.1.4.2.5l12.2 7.8c.1.1.2.1.3.1.1 0 .2 0 .2-.1l13.7-7.3c.3-.2.4-.4.4-.6M18 16l12 7c.1.1.2.1.3.1.1 0 .2 0 .3-.1l12.9-7c.2-.1.3-.3.3-.5s-.1-.4-.3-.5l-12-6h-.6L18 15c-.2.1-.3.3-.3.5s.1.4.3.5m25.7 16.9c0-.2-.1-.4-.3-.5l-12.9-6.9c-.2-.1-.3-.1-.5 0l-12.8 6.9c-.2.1-.3.3-.3.5s.1.4.3.5l13 7.3c.1 0 .2.1.3.1.1 0 .2 0 .3-.1l12.7-7.3c.1-.2.2-.4.2-.5M66.7.2c-.1-.1-.3-.2-.5-.2L51.6 1.6c-.2 0-.3.1-.4.3l-6.7 12.9c-.1.2-.1.4 0 .5.1.1.3.2.4.2l14.8-1.3c.2 0 .3-.1.4-.3L66.5.7c.3-.1.3-.3.2-.5M45.3 55.1c-.2-.1-.4-.1-.5 0l-13.1 8.7c-.1.1-.2.3-.2.4v15.9c0 .2.1.4.3.5.1 0 .2.1.3.1.1 0 .2 0 .3-.1l13.1-8.7c.1-.1.2-.3.2-.4V55.6c-.1-.2-.3-.4-.4-.5"/></svg>