<svg id="Слой_1" xmlns="http://www.w3.org/2000/svg" viewBox="0 0 240 326.7"><style>.st0{fill:#cd1417}.st1{fill:#d1dde8}</style><path class="st0" d="M0 326.7h240v-100H0v100zm157-74.9h34.7v10.4h-22.9v11h18.9v9.6h-18.9V303H157v-51.2zm-55.1 0H121c4.2 0 7.9.7 11.1 2 3.2 1.3 5.8 3.2 8 5.5 2.1 2.3 3.7 5 4.8 8.1 1.1 3.1 1.6 6.4 1.6 9.9 0 3.9-.6 7.4-1.8 10.6-1.2 3.1-2.9 5.8-5.1 8.1-2.2 2.2-4.9 4-8.1 5.2-3.1 1.2-6.6 1.8-10.5 1.8h-19.1v-51.2zm-48.5 0h21.8c2.4 0 4.7.5 6.7 1.5s3.8 2.3 5.3 4c1.5 1.6 2.6 3.5 3.5 5.5.8 2.1 1.3 4.2 1.3 6.3 0 2.3-.4 4.4-1.2 6.5-.8 2.1-1.9 3.9-3.3 5.5s-3.1 2.9-5.1 3.9c-2 1-4.3 1.4-6.7 1.4H65.2V303H53.4v-51.2zm0 0"/><path class="st0" d="M78.5 274.4c1-1.2 1.5-2.9 1.5-5.3 0-1.2-.2-2.2-.5-3.1-.3-.9-.7-1.6-1.3-2.2-.5-.6-1.1-1-1.8-1.3-.7-.3-1.3-.4-2-.4h-9.2v14h9.6c1.4.1 2.6-.5 3.7-1.7zm83-271.7v75.8h75.8L161.5 2.7zm0 0"/><path class="st1" d="M148 92V0H0v212h240V92h-92zm0 0"/><path class="st0" d="M126.7 291.4c1.7-.8 3.1-1.8 4.2-3.2 1.1-1.4 2-3 2.6-4.8.6-1.9.9-3.9.9-6.1 0-2.3-.3-4.3-.9-6.2-.6-1.8-1.5-3.4-2.6-4.8-1.2-1.3-2.6-2.4-4.2-3.1-1.7-.7-3.6-1.1-5.7-1.1h-7.3v30.4h7.3c2.1.1 4-.3 5.7-1.1zm0 0"/></svg>