<svg id="Слой_1" xmlns="http://www.w3.org/2000/svg" xmlns:xlink="http://www.w3.org/1999/xlink" viewBox="0 0 745.7 590.3"><style>.st0{clip-path:url(#SVGID_2_);fill:#fff}</style><defs><path id="SVGID_1_" d="M0 0h745.7v590.3H0z"/></defs><clipPath id="SVGID_2_"><use xlink:href="#SVGID_1_" overflow="visible"/></clipPath><path class="st0" d="M49 269.4c3.9 13.4 9.4 26.4 16.2 38.6l-19.6 24.7c-6.4 8.1-5.7 19.6 1.5 26.9l33.8 33.8c7.3 7.3 18.8 7.9 26.9 1.5l24.6-19.4c12.6 7.3 26.1 13 40.1 17l3.7 31.6c1.2 10.2 9.8 17.9 20.1 17.9h47.8c10.2 0 18.9-7.7 20.1-17.9l3.5-30.5c15-3.9 29.4-9.8 43-17.4l23.8 18.8c8.1 6.4 19.6 5.7 26.9-1.5l33.8-33.8c7.3-7.3 7.9-18.8 1.5-26.9l-18.5-23.4c7.7-13.3 13.7-27.4 17.7-42.2l28.5-3.3c10.2-1.2 17.9-9.8 17.9-20.1V196c0-10.2-7.7-18.9-17.9-20.1l-28.1-3.3c-3.8-14.6-9.6-28.6-17-41.8l17.3-21.8c6.4-8.1 5.7-19.6-1.5-26.9l-33.7-33.7c-7.3-7.3-18.8-7.9-26.9-1.5L313 63.8c-13.8-8.1-28.5-14.2-43.9-18.4L265.9 18c-1.2-10.3-9.8-18-20.1-18H198c-10.2 0-18.9 7.7-20.1 17.9l-3.2 27.4c-15.8 4.2-31 10.6-45 19l-22-17.4c-8.1-6.4-19.6-5.7-26.9 1.5L47.1 82.2c-7.3 7.3-7.9 18.8-1.5 26.9L64 132.4c-7.4 13.3-13 27.4-16.6 42.2L18 178c-10.3 1.1-18 9.8-18 20v47.8c0 10.2 7.7 18.9 17.9 20.1l31.1 3.5zm173-129.2c43.5 0 79 35.4 79 79 0 43.5-35.4 79-79 79s-79-35.4-79-79c0-43.5 35.5-79 79-79"/><path class="st0" d="M694.2 281.2L669 259.9c-7.8-6.6-19.2-6.2-26.6.7l-13.9 13c-11.8-5.7-24.2-9.7-37.1-12l-3.9-19.2c-2-9.9-11.2-16.8-21.3-16l-32.9 2.8c-10.1.9-18 9.1-18.3 19.3l-.6 19.5c-12.6 4.6-24.6 10.8-35.4 18.6l-16.6-11c-8.5-5.6-19.8-4-26.3 3.8l-21.3 25.4c-6.6 7.8-6.2 19.2.7 26.6l14.6 15.5c-5 11.4-8.6 23.3-10.7 35.5l-20.8 4.2c-9.9 2-16.8 11.2-16 21.3l2.8 32.9c.9 10.1 9.1 18 19.3 18.3l22.5.7c4.1 10.7 9.4 20.9 15.9 30.4l-12.6 19c-5.6 8.5-4 19.8 3.8 26.3l25.2 21.3c7.8 6.6 19.2 6.2 26.6-.7l16.5-15.4c10.8 5 22.2 8.8 33.8 11l4.6 22.6c2 9.9 11.2 16.8 21.3 16l32.9-2.8c10.1-.9 18-9.1 18.3-19.3l.7-22.1c12-4.2 23.4-10 33.8-17.1l18.2 12c8.5 5.6 19.8 4 26.3-3.8l21.3-25.2c6.6-7.8 6.2-19.2-.7-26.6l-14.6-15.5c5.4-11.4 9.3-23.4 11.5-35.7l20-4.1c9.9-2 16.8-11.2 16-21.3l-2.8-32.9c-.9-10.1-9.1-18-19.3-18.3l-20.1-.6c-4.2-11.7-9.8-22.7-16.7-33l11-16.5c5.4-8.4 3.8-19.7-3.9-26.3m-124 190.1c-35.5 3-66.9-23.4-69.8-59-3-35.5 23.4-66.9 59-69.8 35.5-3 66.9 23.4 69.8 59 3 35.5-23.4 66.8-59 69.8"/></svg>