<svg id="Слой_1" xmlns="http://www.w3.org/2000/svg" viewBox="0 0 51.1 64.7"><style>.st0{clip-path:url(#SVGID_2_);fill:#2076a6}</style><defs><path id="SVGID_1_" d="M0 0h51.1v64.7H0z"/></defs><clipPath id="SVGID_2_"/><path class="st0" d="M51.1 8.2V0H0v8.2h2.5v3.6H0V20h51.1v-8.2h-2.9V8.2h2.9zm-42 8.5H5.6v-3.5h3.6v3.5zm0-5H5.6V8.2h3.6v3.5zm0-4.9H5.6V3.4h3.6v3.4zm5.3 9.9h-3.6v-3.5h3.6v3.5zm0-5h-3.6V8.2h3.6v3.5zm0-4.9h-3.6V3.4h3.6v3.4zm5.1 9.9H16v-3.5h3.6v3.5zm0-5H16V8.2h3.6v3.5zm0-4.9H16V3.4h3.6v3.4zm5.2 9.9h-3.6v-3.5h3.6v3.5zm0-5h-3.6V8.2h3.6v3.5zm0-4.9h-3.6V3.4h3.6v3.4zm5.2 9.9h-3.6v-3.5h3.6v3.5zm0-5h-3.6V8.2h3.6v3.5zm0-4.9h-3.6V3.4h3.6v3.4zm5.2 9.9h-3.6v-3.5h3.6v3.5zm0-5h-3.6V8.2h3.6v3.5zm0-4.9h-3.6V3.4h3.6v3.4zm7.9 9.8h-4.6v-2.1H43v2.1zm-2.3-6c-2 0-3.7-1.6-3.7-3.7 0-2 1.6-3.7 3.7-3.7 2 0 3.7 1.6 3.7 3.7s-1.6 3.7-3.7 3.7M43 6.9c0 1.3-1 2.3-2.3 2.3-1.3 0-2.3-1-2.3-2.3 0-1.3 1-2.3 2.3-2.3C42 4.6 43 5.7 43 6.9M0 30.7h2.5v3.6H0v8.2h51.1v-8.2h-2.9v-3.6h2.9v-8.2H0v8.2zm43 8.4h-4.6V37H43v2.1zm-2.3-13.3c2 0 3.7 1.6 3.7 3.7 0 2-1.6 3.7-3.7 3.7-2 0-3.7-1.6-3.7-3.7.1-2 1.7-3.7 3.7-3.7m-9.2.1h3.6v3.5h-3.6v-3.5zm0 4.9h3.6v3.5h-3.6v-3.5zm0 4.9h3.6v3.5h-3.6v-3.5zm-5.1-9.8H30v3.5h-3.6v-3.5zm0 4.9H30v3.5h-3.6v-3.5zm0 4.9H30v3.5h-3.6v-3.5zm-5.3-9.8h3.6v3.5h-3.6v-3.5zm0 4.9h3.6v3.5h-3.6v-3.5zm0 4.9h3.6v3.5h-3.6v-3.5zM16 25.9h3.6v3.5H16v-3.5zm0 4.9h3.6v3.5H16v-3.5zm0 4.9h3.6v3.5H16v-3.5zm-5.2-9.8h3.6v3.5h-3.6v-3.5zm0 4.9h3.6v3.5h-3.6v-3.5zm0 4.9h3.6v3.5h-3.6v-3.5zm-5.2-9.8h3.6v3.5H5.6v-3.5zm0 4.9h3.6v3.5H5.6v-3.5zm0 4.9h3.6v3.5H5.6v-3.5zm32.9-6.2c0-1.3 1-2.3 2.3-2.3 1.3 0 2.3 1 2.3 2.3 0 1.3-1 2.3-2.3 2.3-1.3 0-2.3-1.1-2.3-2.3M0 52.9h2.5v3.6H0v8.2h51.1v-8.2h-2.9v-3.6h2.9v-8.2H0v8.2zm43 8.3h-4.6v-2.1H43v2.1zm-2.3-13.3c2 0 3.7 1.6 3.7 3.7 0 2-1.6 3.7-3.7 3.7-2 0-3.7-1.6-3.7-3.7.1-2 1.7-3.7 3.7-3.7m-9.2.1h3.6v3.5h-3.6V48zm0 4.9h3.6v3.5h-3.6v-3.5zm0 4.9h3.6v3.5h-3.6v-3.5zM26.4 48H30v3.5h-3.6V48zm0 4.9H30v3.5h-3.6v-3.5zm0 4.9H30v3.5h-3.6v-3.5zM21.1 48h3.6v3.5h-3.6V48zm0 4.9h3.6v3.5h-3.6v-3.5zm0 4.9h3.6v3.5h-3.6v-3.5zM16 48h3.6v3.5H16V48zm0 4.9h3.6v3.5H16v-3.5zm0 4.9h3.6v3.5H16v-3.5zM10.8 48h3.6v3.5h-3.6V48zm0 4.9h3.6v3.5h-3.6v-3.5zm0 4.9h3.6v3.5h-3.6v-3.5zM5.6 48h3.6v3.5H5.6V48zm0 4.9h3.6v3.5H5.6v-3.5zm0 4.9h3.6v3.5H5.6v-3.5zm32.9-6.2c0-1.3 1-2.3 2.3-2.3 1.3 0 2.3 1 2.3 2.3 0 1.3-1 2.3-2.3 2.3-1.3 0-2.3-1.1-2.3-2.3"/></svg>