<svg id="Слой_1" xmlns="http://www.w3.org/2000/svg" xmlns:xlink="http://www.w3.org/1999/xlink" viewBox="0 0 334.3 390.4"><style>.st0{clip-path:url(#SVGID_2_);fill:#fff}</style><defs><path id="SVGID_1_" d="M0 0h334.3v390.4H0z"/></defs><clipPath id="SVGID_2_"><use xlink:href="#SVGID_1_" overflow="visible"/></clipPath><path class="st0" d="M212.3 247.9v-16.4s51.7 1.6 76.2-23.4c0 0-35.7-10.1-29.3-75.1 6.4-65-8-122-60.2-117.2 0 0-22.6-27.3-67.7-10.1-15.4 5.9-57 20.7-54.9 110.8 2.1 90-32 90.6-32 90.6s17.6 25.6 77.3 25v16.8l45.4 132.5 45.3-132.2-.1-1.3z"/><path class="st0" d="M334.2 383.3l-9.1-50.4c-3-16.3-13.5-30.3-28.4-37.7L239.6 267c-3.3-1.6-6.5-3.4-9.7-5.2l18 53.1-25.2-1.9-55.5 68.3-55.5-68.3-25.3 2 18.4-53.1-11.4 5.8-55.8 27.5c-14.9 7.4-25.4 21.4-28.4 37.7L.1 383.3c-.6 3.7 2.2 7.1 5.9 7.1h322.1c3.9 0 6.7-3.4 6.1-7.1"/></svg>