<svg id="Слой_1" xmlns="http://www.w3.org/2000/svg" viewBox="0 0 12.8 12.8"><style>.st0{fill:#fff}</style><path class="st0" d="M6.3 4.8c.2 0 .2-.2.2-.4V3.3c0-.2-.1-.4-.2-.4s-.2.1-.2.4v1.1c0 .2.1.4.2.4m-.6 4.7c-.1.2-.3.3-.3.3-.1 0-.1 0-.1-.1V7.5h-.5v2.1c0 .2 0 .3.1.4.1.2.1.2.3.2.2 0 .3-.1.6-.3v.3h.5V7.5h-.6v2zM3 7.1h.6v3.1h.6V7.1h.5v-.5H3zm4.5.3c-.1 0-.3.2-.5.4V6.6h-.4v3.5H7v-.3c.2.2.3.3.5.3s.3-.1.4-.3c0 0 .1-.3.1-.5v-1c0-.3 0-.5-.1-.6-.1-.1-.1-.3-.4-.3m0 2c0 .2-.1.3-.2.3s-.2 0-.2-.1V8c.1-.1.2-.1.2-.1.2 0 .2.2.2.4v1.1zm1.5-2c-.2 0-.4.1-.6.2 0 .2-.1.4-.1.7v1c0 .3.1.5.2.6.2.2.3.2.6.2.2 0 .5-.1.6-.3.1-.1.1-.2.1-.3v-.4h-.6v.3c0 .2-.1.2-.2.2s-.3-.2-.3-.4v-.5h1v-.5c0-.3-.1-.5-.2-.6 0 0-.2-.2-.5-.2m.3 1.1h-.5v-.3c0-.2.1-.4.2-.4s.3.2.3.4v.3z"/><path class="st0" d="M0 12.8h12.8V0H0v12.8zM7.4 2.5H8v2.2c0 .1 0 .2.1.2s.2-.1.3-.2V2.5h.5v2.6h-.6v-.2c-.1.2-.4.3-.5.3-.2 0-.3-.1-.4-.2 0-.1-.1-.2-.1-.4V2.5zm-1.1 0c.2 0 .4.1.6.2.1.2.1.3.1.7v1c0 .2 0 .4-.1.6-.2.1-.3.2-.6.2-.2 0-.4-.1-.5-.2-.2-.2-.2-.4-.2-.7v-1c0-.2 0-.5.2-.6.1-.1.3-.2.5-.2m-2.1-.9L4.6 3 5 1.6h.6L5 3.8v1.4h-.6V3.8c-.1-.4-.2-.7-.3-1.2-.2-.3-.2-.6-.4-1h.5zm6 8.7c-.1.4-.5.7-.9.8-1 .1-2 .1-3 .1s-2 0-3-.1c-.3-.1-.7-.3-.7-.8-.2-.6-.2-1.3-.2-1.9 0-.6 0-1.2.2-1.8 0-.4.4-.8.8-.8 1-.1 2-.1 3-.1s2 0 3 .1c.4.1.8.3.9.8.2.6.2 1.3.2 1.8-.1.6-.1 1.3-.3 1.9"/></svg>